# Blender v2.78 (sub 0) OBJ File: 'ConnectedRoadBlock.blend'
# www.blender.org
mtllib ConnectedRoadBlock.mtl
o Plane.001_Plane.003
v 1.835914 0.000000 1.717801
v -1.835914 0.000000 1.717801
v -1.835914 0.000000 2.866988
v -1.835914 0.000000 0.568614
v 1.835914 0.000000 2.866988
v 1.835914 0.000000 0.568614
v 1.835914 0.050509 2.999719
v 1.835914 0.050509 0.435882
v -1.835914 0.050509 0.435882
v -1.835914 0.050509 2.999719
v 1.835914 0.050509 8.097239
v -1.835914 0.050509 8.097239
v 1.835914 0.000000 5.431221
v -1.835914 0.000000 5.431221
v -1.835914 0.000000 6.580409
v -1.835914 0.000000 4.282034
v 1.835914 0.000000 6.580409
v 1.835914 0.000000 4.282034
v 1.835914 0.050509 6.713140
v 1.835914 0.050509 4.149303
v -1.835914 0.050509 4.149303
v -1.835914 0.050509 6.713140
v 1.835914 0.050509 -8.379438
v -1.835914 0.050509 -8.379438
v 1.835914 0.000000 -5.713420
v -1.835914 0.000000 -5.713420
v -1.835914 0.000000 -4.564233
v -1.835914 0.000000 -6.862607
v 1.835914 0.000000 -4.564233
v 1.835914 0.000000 -6.862607
v 1.835914 0.050509 -4.431501
v 1.835914 0.050509 -6.995338
v -1.835914 0.050509 -6.995338
v -1.835914 0.050509 -4.431501
v 1.835914 0.000000 -1.999999
v -1.835914 0.000000 -1.999999
v -1.835914 0.000000 -0.850812
v -1.835914 0.000000 -3.149187
v 1.835914 0.000000 -0.850812
v 1.835914 0.000000 -3.149187
v 1.835914 0.050509 -0.718081
v 1.835914 0.050509 -3.281918
v -1.835914 0.050509 -3.281918
v -1.835914 0.050509 -0.718081
vn 0.0000 0.9346 -0.3557
vn 0.0000 1.0000 0.0000
vn 0.0000 0.9346 0.3557
usemtl None
s off
f 7//1 5//1 3//1 10//1
f 5//2 1//2 2//2 3//2
f 4//2 2//2 1//2 6//2
f 9//3 4//3 6//3 8//3
f 12//2 11//2 19//2 22//2
f 19//1 17//1 15//1 22//1
f 17//2 13//2 14//2 15//2
f 16//2 14//2 13//2 18//2
f 21//3 16//3 18//3 20//3
f 21//2 20//2 7//2 10//2
f 31//1 29//1 27//1 34//1
f 29//2 25//2 26//2 27//2
f 28//2 26//2 25//2 30//2
f 33//3 28//3 30//3 32//3
f 32//2 23//2 24//2 33//2
f 44//2 9//2 8//2 41//2
f 41//1 39//1 37//1 44//1
f 39//2 35//2 36//2 37//2
f 38//2 36//2 35//2 40//2
f 43//3 38//3 40//3 42//3
f 43//2 42//2 31//2 34//2
